<?xml version="1.0" encoding="utf-8"?>
<!-- Generator: Adobe Illustrator 25.2.0, SVG Export Plug-In . SVG Version: 6.00 Build 0)  -->
<svg version="1.1" id="Layer_1" xmlns="http://www.w3.org/2000/svg" xmlns:xlink="http://www.w3.org/1999/xlink" x="0px" y="0px"
	 viewBox="0 0 70.6 70.6" style="enable-background:new 0 0 70.6 70.6;" xml:space="preserve">
<style type="text/css">
	.st0{fill-rule:evenodd;clip-rule:evenodd;fill:#FEFEFE;}
</style>
<g id="Page-1">
	<g id="USSF_home" transform="translate(-183.000000, -511.000000)">
		<g id="USSF_horizontal_w" transform="translate(183.000000, 511.000000)">
			<path id="Fill-3" class="st0" d="M35.3,50.8l16.6,10L35.3,11L18.7,60.8L35.3,50.8z M54.1,63.4L35.3,52.2L16.5,63.4L35.3,7.1
				L54.1,63.4z M36.6,20.9l3.9,26l6.1,7.4l-7.3-6.5l-2.8,1.6l11.9,7.2L36.6,20.9z M24,54.2l6.1-7.4l3.9-26L22,56.6l12-7.2l-2.8-1.6
				L24,54.2z M38.8,43.4l-2.8,0.8L35.3,47l-0.8-2.8l-2.8-0.8l2.8-0.8l0.8-2.8l0.8,2.8L38.8,43.4z"/>
		</g>
	</g>
</g>
</svg>
