<svg class="space-force-logo" viewBox="0 0 249 100" version="1.1" xmlns="http://www.w3.org/2000/svg" xmlns:xlink="http://www.w3.org/1999/xlink">
		<title>USSF_horizontal_w</title>
		<defs>
			<polygon id="path-1" points="0.789755921 0.457213115 3.85704276 0.457213115 3.85704276 3.41131148 0.789755921 3.41131148"></polygon>
		</defs>
		<g id="Page-1" stroke="none" stroke-width="1" fill="none" fill-rule="evenodd">
			<g id="USSF_home" transform="translate(-183.000000, -511.000000)">
				<g id="USSF_horizontal_w" transform="translate(183.000000, 511.000000)">
					<path d="M210.176313,41.6727869 C209.107415,41.4170492 208.917389,41.2367213 208.917389,40.8588525 C208.917389,40.5006557 209.253211,40.2596721 209.75203,40.2596721 C210.233649,40.2596721 210.710353,40.4416393 211.21081,40.8145902 L211.261593,40.8531148 L211.852968,40.0195082 L211.80628,39.982623 C211.215724,39.5072131 210.548175,39.2760656 209.768412,39.2760656 C208.623339,39.2760656 207.824737,39.9629508 207.824737,40.944918 C207.824737,41.9981967 208.514402,42.3719672 209.706981,42.6604918 C210.729191,42.8965574 210.902017,43.094918 210.902017,43.4498361 C210.902017,43.8440984 210.551451,44.0883607 209.988744,44.0883607 C209.373616,44.0883607 208.849405,43.8727869 208.289974,43.3867213 L208.241649,43.3457377 L207.579014,44.1334426 L207.624882,44.1744262 C208.281784,44.7621311 209.091853,45.0719672 209.964991,45.0719672 C211.198524,45.0719672 211.995487,44.3981967 211.995487,43.3555738 C211.995487,42.4744262 211.468001,41.9867213 210.176313,41.6727869 L210.176313,41.6727869 Z M163.587103,41.6727869 C162.518205,41.4170492 162.328178,41.2367213 162.328178,40.8588525 C162.328178,40.5006557 162.664001,40.2596721 163.163639,40.2596721 C163.644438,40.2596721 164.120323,40.4416393 164.621599,40.8145902 L164.672382,40.8531148 L165.263757,40.0195082 L165.21707,39.982623 C164.626514,39.5072131 163.958964,39.2760656 163.178382,39.2760656 C162.034948,39.2760656 161.235527,39.9629508 161.235527,40.944918 C161.235527,41.9981967 161.925191,42.3719672 163.11777,42.6604918 C164.139981,42.8965574 164.312807,43.094918 164.312807,43.4498361 C164.312807,43.8440984 163.962241,44.0883607 163.399534,44.0883607 C162.784405,44.0883607 162.260195,43.8727869 161.699945,43.3867213 L161.652438,43.3457377 L160.989803,44.1334426 L161.034853,44.1744262 C161.693392,44.7621311 162.501823,45.0719672 163.374961,45.0719672 C164.608494,45.0719672 165.406277,44.3981967 165.406277,43.3555738 C165.406277,42.4744262 164.87879,41.9867213 163.587103,41.6727869 L163.587103,41.6727869 Z M181.252997,43.0219672 L182.004912,41.5154098 L182.755188,43.0219672 L181.252997,43.0219672 Z M182.004912,39.2760656 L179.111106,44.994918 L180.302047,44.994918 L180.827895,43.9285246 L183.181928,43.9285246 L183.707777,44.994918 L184.898718,44.994918 L182.004912,39.2760656 Z M202.028935,42.6752459 L202.028935,41.6727869 L199.613471,41.6727869 L199.613471,40.4211475 L202.725152,40.4211475 L202.725152,39.3645902 L198.459389,39.3645902 L198.459389,44.994918 L202.736619,44.994918 L202.736619,43.9383607 L199.613471,43.9383607 L199.613471,42.6752459 L202.028935,42.6752459 Z M193.649757,40.4211475 L193.649757,39.3645902 L188.382261,39.3645902 L188.392909,40.4211475 L190.449616,40.4211475 L190.449616,44.994918 L191.59305,44.994918 L191.59305,40.4211475 L193.649757,40.4211475 Z M175.280274,40.4211475 L175.280274,39.3645902 L170.014415,39.3645902 L170.025063,40.4211475 L172.08177,40.4211475 L172.08177,44.994918 L173.225205,44.994918 L173.225205,40.4211475 L175.280274,40.4211475 Z M147.060547,40.3990164 L146.027688,40.3990164 L146.027688,43.9383607 L147.060547,43.9383607 C148.127807,43.9383607 148.98702,43.1547541 148.98702,42.1744262 C148.98702,41.1940984 148.127807,40.3990164 147.060547,40.3990164 L147.060547,40.3990164 Z M147.104777,44.994918 L144.872787,44.994918 L144.872787,39.3645902 L147.104777,39.3645902 C148.813376,39.3645902 150.140284,40.6277049 150.140284,42.185082 C150.140284,43.7203279 148.813376,44.994918 147.104777,44.994918 L147.104777,44.994918 Z M139.095004,42.6752459 L139.095004,41.6727869 L136.67954,41.6727869 L136.67954,40.4211475 L139.791221,40.4211475 L139.791221,39.3645902 L135.525458,39.3645902 L135.525458,44.994918 L139.802688,44.994918 L139.802688,43.9383607 L136.67954,43.9383607 L136.67954,42.6752459 L139.095004,42.6752459 Z M130.737122,40.4211475 L130.737122,39.3645902 L125.469626,39.3645902 L125.480274,40.4211475 L127.536981,40.4211475 L127.536981,44.994918 L128.679596,44.994918 L128.679596,40.4211475 L130.737122,40.4211475 Z M119.351925,44.994918 L120.516655,44.994918 L120.516655,39.3645902 L119.351925,39.3645902 L119.351925,44.994918 Z M113.556122,45.2342623 L113.556122,39.3645902 L112.402859,39.3645902 L112.402859,42.5440984 C112.402859,42.6309836 112.414326,42.9039344 112.414326,42.9039344 L107.930688,39.092459 L107.930688,44.994918 L109.095418,44.994918 L109.095418,41.8801639 C109.095418,41.782623 109.083951,41.4334426 109.083951,41.4334426 L113.556122,45.2342623 Z M102.315083,42.2072131 L102.315083,39.3752459 L101.151172,39.3752459 L101.151172,42.2072131 C101.151172,43.3063934 100.585188,43.9932787 99.5302145,43.9932787 C98.4858888,43.9932787 97.9190862,43.2957377 97.9190862,42.1957377 L97.9190862,39.3645902 L96.7543559,39.3645902 L96.7543559,42.1957377 C96.7543559,43.9277049 97.7773855,45.0711475 99.5408625,45.0711475 C101.282224,45.0711475 102.315083,43.9162295 102.315083,42.2072131 L102.315083,42.2072131 Z M229.124886,54.0695082 L239.066047,54.0695082 L237.385297,56.4088525 L231.599323,56.4088525 L231.599323,61.1563934 L239.066047,61.1563934 L237.385297,63.4957377 L231.599323,63.4957377 L231.599323,68.2883607 L239.066047,68.2883607 L237.385297,70.6514754 L229.124886,70.6514754 L229.124886,54.0695082 Z M208.55208,62.3604918 C208.55208,57.5211475 212.319024,53.842459 217.06231,53.842459 C220.194468,53.842459 222.919543,55.5227869 224.393886,58.0219672 L222.23807,59.3613115 C221.216678,57.4539344 219.401599,56.2268852 217.06231,56.2268852 C213.613168,56.2268852 211.024879,58.9531148 211.024879,62.3604918 C211.024879,65.7219672 213.613168,68.4481967 217.040195,68.4481967 C219.604731,68.4481967 221.444382,67.0391803 222.396971,65.0408197 L224.621589,66.2219672 C223.192297,68.9932787 220.445106,70.8777049 217.06231,70.8777049 C212.160122,70.8777049 208.55208,67.0621311 208.55208,62.3604918 L208.55208,62.3604918 Z M193.667777,54.0695082 L198.820603,54.0695082 C202.338547,54.0695082 204.676198,56.4539344 204.676198,59.4760656 C204.676198,61.6785246 203.450856,63.7686885 201.09027,64.494918 L205.039869,70.6514754 L202.203399,70.6514754 L197.208655,62.7465574 L198.547849,62.7465574 C201.021468,62.7465574 202.203399,60.9965574 202.203399,59.4760656 C202.203399,57.6129508 200.999353,56.3637705 198.569964,56.3637705 L196.141395,56.3637705 L196.141395,70.6514754 L193.667777,68.9678689 L193.667777,54.0695082 Z M186.85304,62.3604918 C186.85304,58.9981967 184.22052,56.2268852 180.815609,56.2268852 C177.432813,56.2268852 174.800293,58.9981967 174.800293,62.3604918 C174.800293,65.7219672 177.432813,68.4703279 180.815609,68.4703279 C184.22052,68.4703279 186.85304,65.7219672 186.85304,62.3604918 L186.85304,62.3604918 Z M172.326675,62.3604918 C172.326675,57.6580328 176.117372,53.842459 180.815609,53.842459 C185.53678,53.842459 189.326659,57.6580328 189.326659,62.3604918 C189.326659,67.0621311 185.53678,70.8777049 180.815609,70.8777049 C176.117372,70.8777049 172.326675,67.0621311 172.326675,62.3604918 L172.326675,62.3604918 Z M159.589997,54.0695082 L169.531159,54.0695082 L167.849589,56.4088525 L162.064435,56.4088525 L162.064435,61.1563934 L169.531159,61.1563934 L167.849589,63.4957377 L162.064435,63.4957377 L162.064435,70.6514754 L159.589997,68.9678689 L159.589997,54.0695082 Z M136.431359,54.0695082 L146.373339,54.0695082 L144.690951,56.4088525 L138.904978,56.4088525 L138.904978,61.1563934 L146.373339,61.1563934 L144.690951,63.4957377 L138.904978,63.4957377 L138.904978,68.2883607 L146.373339,68.2883607 L144.690951,70.6514754 L136.431359,70.6514754 L136.431359,54.0695082 Z M115.999435,62.3604918 C115.999435,57.5211475 119.767198,53.842459 124.511303,53.842459 C127.642642,53.842459 130.366899,55.5227869 131.84206,58.0219672 L129.686244,59.3613115 C128.664034,57.4539344 126.848136,56.2268852 124.511303,56.2268852 C121.060524,56.2268852 118.473872,58.9531148 118.473872,62.3604918 C118.473872,65.7219672 121.060524,68.4481967 124.488369,68.4481967 C127.053724,68.4481967 128.891737,67.0391803 129.845145,65.0408197 L132.069764,66.2219672 C130.638833,68.9932787 127.892461,70.8777049 124.511303,70.8777049 C119.609116,70.8777049 115.999435,67.0621311 115.999435,62.3604918 L115.999435,62.3604918 Z M104.126886,64.744918 L109.392744,64.744918 L106.760224,57.4760656 L104.126886,64.744918 Z M105.489014,54.0695082 L108.031435,54.0695082 L114.114734,70.6514754 L111.549379,70.6514754 L110.256053,67.1072131 L103.265214,67.1072131 L101.994004,70.6514754 L99.4065336,70.6514754 L105.489014,54.0695082 Z M88.8928362,56.3408197 L88.8928362,63.4047541 L91.6850763,63.4047541 C93.953925,63.4047541 95.385675,61.8604918 95.385675,59.8842623 C95.385675,57.8859016 93.953925,56.3408197 91.6850763,56.3408197 L88.8928362,56.3408197 Z M86.4192178,54.0695082 L91.8677309,54.0695082 C95.385675,54.0695082 97.8584743,56.6137705 97.8584743,59.8842623 C97.8584743,63.132623 95.385675,65.6990164 91.8439776,65.6990164 L88.8928362,65.6990164 L88.8928362,70.6514754 L86.4192178,68.9678689 L86.4192178,54.0695082 Z M69.6829776,67.8572131 L71.8617276,66.1531148 C72.8380697,67.7203279 74.1543296,68.5613115 75.8342605,68.5613115 C77.6730928,68.5613115 78.8304513,67.3793443 78.8304513,65.9039344 C78.8304513,64.1998361 77.0137342,63.6547541 75.1077375,63.0416393 C72.8601849,62.3154098 70.4324349,61.4063934 70.4324349,58.3621311 C70.4324349,55.8408197 72.6799875,53.842459 75.7433428,53.842459 C78.2628296,53.842459 79.8280895,54.8186885 81.1001191,56.294918 L79.0794513,57.7940984 C78.3308132,56.6359016 77.219323,56.0227869 75.7433428,56.0227869 C74.0634118,56.0227869 72.9732178,57.0219672 72.9732178,58.3170492 C72.9732178,59.9072131 74.7219513,60.4285246 76.6287671,61.0654098 C78.8984349,61.837541 81.3728724,62.8145902 81.3728724,65.9039344 C81.3728724,68.4481967 79.2842211,70.8777049 75.8571947,70.8777049 C73.0199053,70.8777049 71.0893362,69.6744262 69.6829776,67.8572131 L69.6829776,67.8572131 Z" id="Fill-1" fill="#FEFEFE"></path>
					<path d="M33.1808882,77.1688525 L62.540773,94.7467213 L33.1808882,6.7057377 L3.81445066,94.7467213 L33.1808882,77.1688525 Z M66.3617763,99.5016393 L33.1808882,79.6418033 L0,99.5139344 L33.1808882,0 L66.3617763,99.5016393 Z M35.4710329,24.2663934 L42.4053553,70.1401639 L53.1156316,83.1909836 L40.1766414,71.7983607 L35.3219605,74.6967213 L56.4664836,87.3852459 L35.4710329,24.2663934 Z M13.2395921,83.1901639 L23.9498684,70.1401639 L30.8841908,24.2680328 L9.89529276,87.3852459 L31.0340822,74.6967213 L26.1794013,71.7983607 L13.2395921,83.1901639 Z M39.5369408,64.0844262 L34.5954375,65.5057377 L33.1808882,70.4516393 L31.7606053,65.5057377 L26.8182829,64.0844262 L31.7606053,62.6631148 L33.1808882,57.7237705 L34.5954375,62.6631148 L39.5369408,64.0844262 Z" id="Fill-3" fill="#FEFEFE"></path>
					<polygon id="Fill-5" fill="#FEFEFE" points="245.111996 54.5165574 244.172512 54.5165574 244.172512 57.0239344 243.654036 57.0239344 243.654036 54.5165574 242.713733 54.5165574 242.713733 54.0690164 245.111996 54.0690164"></polygon>
					<g id="Group-9" transform="translate(244.904605, 53.612295)">
						<mask id="mask-2" fill="white">
							<use xlink:href="#path-1"></use>
						</mask>
						<g id="Clip-8"></g>
						<path d="M3.85720658,3.41131148 L3.36494013,3.41131148 L3.36903553,2.30639344 C3.36903553,2.20885246 3.36903553,2.07114754 3.37395,1.89409836 C3.37395,1.71704918 3.37804539,1.57934426 3.38295987,1.48590164 C3.38787434,1.29983607 3.39196974,1.18918033 3.40917039,0.900655738 C3.34773947,1.13098361 3.22323947,1.51704918 3.12576908,1.79163934 L2.54504211,3.41131148 L2.12403553,3.41131148 L1.51300263,1.81868852 C1.42781842,1.58754098 1.29922303,1.17114754 1.23779211,0.922786885 L1.25007829,1.19245902 C1.26809803,1.58344262 1.2730125,1.80557377 1.27792697,2.26704918 L1.28038421,3.41131148 L0.789755921,3.41131148 L0.789755921,0.457213115 L1.51300263,0.457213115 L2.07980526,2.00065574 L2.17727566,2.31131148 L2.27474605,2.62606557 L2.33699605,2.84327869 L2.39924605,2.62196721 L2.4868875,2.32852459 L2.58927237,2.00065574 L3.13395987,0.457213115 L3.85720658,0.457213115 L3.85720658,3.41131148 Z" id="Fill-7" fill="#FEFEFE" mask="url(#mask-2)"></path>
					</g>
				</g>
			</g>
		</g>
	</svg>