<?xml version="1.0" encoding="utf-8"?>
<!-- Generator: Adobe Illustrator 25.2.0, SVG Export Plug-In . SVG Version: 6.00 Build 0)  -->
<svg version="1.1" id="Layer_1" xmlns="http://www.w3.org/2000/svg" xmlns:xlink="http://www.w3.org/1999/xlink" x="0px" y="0px"
	 viewBox="0 0 249 51.3" style="enable-background:new 0 0 249 51.3;" xml:space="preserve">
<style type="text/css">
	.st0{fill-rule:evenodd;clip-rule:evenodd;fill:#FEFEFE;}
	.st1{filter:url(#Adobe_OpacityMaskFilter);}
	.st2{fill-rule:evenodd;clip-rule:evenodd;fill:#FFFFFF;}
	.st3{mask:url(#mask-2_1_);fill-rule:evenodd;clip-rule:evenodd;fill:#FEFEFE;}
</style>
<g id="Page-1">
	<g id="USSF_home" transform="translate(-183.000000, -511.000000)">
		<g id="USSF_horizontal_w" transform="translate(183.000000, 511.000000)">
			<path id="Fill-1" class="st0" d="M195.2,7.1c-1.5-0.4-1.7-0.6-1.7-1.1c0-0.5,0.5-0.8,1.2-0.8c0.7,0,1.3,0.3,2,0.8l0.1,0.1
				l0.8-1.2l-0.1-0.1c-0.8-0.7-1.7-1-2.8-1c-1.6,0-2.7,1-2.7,2.3c0,1.5,1,2,2.6,2.4c1.4,0.3,1.7,0.6,1.7,1.1c0,0.5-0.5,0.9-1.3,0.9
				c-0.9,0-1.6-0.3-2.4-1l-0.1-0.1l-0.9,1.1l0.1,0.1c0.9,0.8,2,1.2,3.3,1.2c1.7,0,2.8-0.9,2.8-2.4C197.7,8.2,197,7.6,195.2,7.1
				L195.2,7.1z M130.4,7.1c-1.5-0.4-1.7-0.6-1.7-1.1c0-0.5,0.5-0.8,1.2-0.8c0.7,0,1.3,0.3,2,0.8L132,6l0.8-1.2l-0.1-0.1
				c-0.8-0.7-1.7-1-2.8-1c-1.6,0-2.7,1-2.7,2.3c0,1.5,1,2,2.6,2.4c1.4,0.3,1.7,0.6,1.7,1.1c0,0.5-0.5,0.9-1.3,0.9
				c-0.9,0-1.6-0.3-2.4-1l-0.1-0.1l-0.9,1.1l0.1,0.1c0.9,0.8,2,1.2,3.3,1.2c1.7,0,2.8-0.9,2.8-2.4C133,8.2,132.2,7.6,130.4,7.1
				L130.4,7.1z M155,9l1-2.1l1,2.1H155z M156,3.8l-4,7.9h1.7l0.7-1.5h3.3l0.7,1.5h1.7L156,3.8z M183.8,8.5V7.1h-3.4V5.4h4.3V3.9
				h-5.9v7.8h5.9v-1.5h-4.3V8.5H183.8z M172.2,5.4V3.9h-7.3l0,1.5h2.9v6.4h1.6V5.4H172.2z M146.7,5.4V3.9h-7.3l0,1.5h2.9v6.4h1.6
				V5.4H146.7z M107.5,5.4h-1.4v4.9h1.4c1.5,0,2.7-1.1,2.7-2.5S109,5.4,107.5,5.4L107.5,5.4z M107.5,11.7h-3.1V3.9h3.1
				c2.4,0,4.2,1.8,4.2,3.9C111.8,10,109.9,11.7,107.5,11.7L107.5,11.7z M96.4,8.5V7.1h-3.4V5.4h4.3V3.9h-5.9v7.8h5.9v-1.5h-4.3V8.5
				H96.4z M84.8,5.4V3.9h-7.3l0,1.5h2.9v6.4H82V5.4H84.8z M69,11.7h1.6V3.9H69V11.7z M60.9,12.1V3.9h-1.6v4.4c0,0.1,0,0.5,0,0.5
				l-6.2-5.3v8.2h1.6V7.4c0-0.1,0-0.6,0-0.6L60.9,12.1z M45.3,7.9V3.9h-1.6v3.9c0,1.5-0.8,2.5-2.3,2.5c-1.5,0-2.2-1-2.2-2.5V3.9
				h-1.6v3.9c0,2.4,1.4,4,3.9,4C43.9,11.9,45.3,10.3,45.3,7.9L45.3,7.9z M221.5,24.4h13.8l-2.3,3.2h-8v6.6h10.4l-2.3,3.2h-8v6.7
				h10.4l-2.3,3.3h-11.5V24.4z M192.9,35.9c0-6.7,5.2-11.8,11.8-11.8c4.4,0,8.1,2.3,10.2,5.8l-3,1.9c-1.4-2.6-3.9-4.4-7.2-4.4
				c-4.8,0-8.4,3.8-8.4,8.5c0,4.7,3.6,8.5,8.4,8.5c3.6,0,6.1-2,7.4-4.7l3.1,1.6c-2,3.8-5.8,6.5-10.5,6.5
				C197.9,47.7,192.9,42.4,192.9,35.9L192.9,35.9z M172.2,24.4h7.2c4.9,0,8.1,3.3,8.1,7.5c0,3.1-1.7,6-5,7l5.5,8.6h-3.9l-6.9-11h1.9
				c3.4,0,5.1-2.4,5.1-4.5c0-2.6-1.7-4.3-5-4.3h-3.4v19.8l-3.4-2.3V24.4z M162.8,35.9c0-4.7-3.7-8.5-8.4-8.5c-4.7,0-8.4,3.8-8.4,8.5
				c0,4.7,3.7,8.5,8.4,8.5C159.1,44.4,162.8,40.5,162.8,35.9L162.8,35.9z M142.6,35.9c0-6.5,5.3-11.8,11.8-11.8
				c6.6,0,11.8,5.3,11.8,11.8c0,6.5-5.3,11.8-11.8,11.8C147.9,47.7,142.6,42.4,142.6,35.9L142.6,35.9z M124.9,24.4h13.8l-2.3,3.2h-8
				v6.6h10.4l-2.3,3.2h-8v9.9l-3.4-2.3V24.4z M92.7,24.4h13.8l-2.3,3.2h-8v6.6h10.4l-2.3,3.2h-8v6.7h10.4l-2.3,3.3H92.7V24.4z
				 M64.3,35.9c0-6.7,5.2-11.8,11.8-11.8c4.3,0,8.1,2.3,10.2,5.8l-3,1.9c-1.4-2.6-3.9-4.4-7.2-4.4c-4.8,0-8.4,3.8-8.4,8.5
				c0,4.7,3.6,8.5,8.4,8.5c3.6,0,6.1-2,7.4-4.7l3.1,1.6c-2,3.8-5.8,6.5-10.5,6.5C69.4,47.7,64.3,42.4,64.3,35.9L64.3,35.9z
				 M47.8,39.2h7.3l-3.7-10.1L47.8,39.2z M49.7,24.4h3.5l8.5,23h-3.6l-1.8-4.9h-9.7l-1.8,4.9h-3.6L49.7,24.4z M26.7,27.5v9.8h3.9
				c3.2,0,5.1-2.1,5.1-4.9c0-2.8-2-4.9-5.1-4.9H26.7z M23.2,24.4h7.6c4.9,0,8.3,3.5,8.3,8.1c0,4.5-3.4,8.1-8.4,8.1h-4.1v6.9
				l-3.4-2.3V24.4z M0,43.5l3-2.4c1.4,2.2,3.2,3.3,5.5,3.3c2.6,0,4.2-1.6,4.2-3.7c0-2.4-2.5-3.1-5.2-4c-3.1-1-6.5-2.3-6.5-6.5
				C1,26.8,4.2,24,8.4,24c3.5,0,5.7,1.4,7.4,3.4l-2.8,2.1c-1-1.6-2.6-2.5-4.6-2.5c-2.3,0-3.8,1.4-3.8,3.2c0,2.2,2.4,2.9,5.1,3.8
				c3.2,1.1,6.6,2.4,6.6,6.7c0,3.5-2.9,6.9-7.7,6.9C4.6,47.7,2,46,0,43.5L0,43.5z"/>
			<polygon id="Fill-5" class="st0" points="243.7,25 242.4,25 242.4,28.5 241.7,28.5 241.7,25 240.4,25 240.4,24.4 243.7,24.4 			
				"/>
			<g id="Group-9" transform="translate(244.904605, 53.612295)">
				<g id="Clip-8">
				</g>
				<defs>
					<filter id="Adobe_OpacityMaskFilter" filterUnits="userSpaceOnUse" x="-0.4" y="-29.3" width="4.3" height="4.1">
						<feColorMatrix  type="matrix" values="1 0 0 0 0  0 1 0 0 0  0 0 1 0 0  0 0 0 1 0"/>
					</filter>
				</defs>
				<mask maskUnits="userSpaceOnUse" x="-0.4" y="-29.3" width="4.3" height="4.1" id="mask-2_1_">
					<g class="st1">
						<polygon id="path-1_1_" class="st2" points="-0.4,-29.3 3.9,-29.3 3.9,-25.2 -0.4,-25.2 						"/>
					</g>
				</mask>
				<path id="Fill-7" class="st3" d="M3.9-25.2H3.2l0-1.5c0-0.1,0-0.3,0-0.6c0-0.2,0-0.4,0-0.6c0-0.3,0-0.4,0-0.8
					c-0.1,0.3-0.3,0.9-0.4,1.2L2-25.2H1.4l-0.8-2.2c-0.1-0.3-0.3-0.9-0.4-1.2l0,0.4c0,0.5,0,0.9,0,1.5l0,1.6h-0.7v-4.1h1l0.8,2.1
					l0.1,0.4l0.1,0.4l0.1,0.3l0.1-0.3L2-26.7l0.1-0.5l0.8-2.1h1V-25.2z"/>
			</g>
		</g>
	</g>
</g>
</svg>
