<?xml version="1.0" encoding="utf-8"?>
<!-- Generator: Adobe Illustrator 25.2.0, SVG Export Plug-In . SVG Version: 6.00 Build 0)  -->
<svg version="1.1" id="Layer_1" xmlns="http://www.w3.org/2000/svg" xmlns:xlink="http://www.w3.org/1999/xlink" x="0px" y="0px"
	 viewBox="0 0 68.3 100" style="enable-background:new 0 0 68.3 100;" xml:space="preserve">
<style type="text/css">
	.st0{fill-rule:evenodd;clip-rule:evenodd;fill:#FEFEFE;}
</style>
<g id="Page-1">
	<g id="USSF_home" transform="translate(-183.000000, -511.000000)">
		<g id="USSF_horizontal_w" transform="translate(183.000000, 511.000000)">
			<path id="Fill-3" class="st0" d="M33.2,77.2l29.4,17.6l-29.4-88l-29.4,88L33.2,77.2z M66.4,99.5L33.2,79.6L0,99.5L33.2,0
				L66.4,99.5z M35.5,24.3l6.9,45.9l10.7,13.1L40.2,71.8l-4.9,2.9l21.1,12.7L35.5,24.3z M13.2,83.2l10.7-13l6.9-45.9l-21,63.1
				L31,74.7l-4.9-2.9L13.2,83.2z M39.5,64.1l-4.9,1.4l-1.4,4.9l-1.4-4.9l-4.9-1.4l4.9-1.4l1.4-4.9l1.4,4.9L39.5,64.1z"/>
		</g>
	</g>
</g>
</svg>
